HIERARCHY
ROOT Hips
{
    OFFSET 0.0 0.0 0.0
    CHANNELS 6 Xposition Yposition Zposition Zrotation Xrotation Yrotation
    JOINT LeftHipJoint
    {
        OFFSET 0.1 0.0 0.0
        CHANNELS 3 Zrotation Xrotation Yrotation
        JOINT LeftUpLeg
        {
            OFFSET 126.91874366976555 0.0 0.0
            CHANNELS 3 Zrotation Xrotation Yrotation
            JOINT LeftLeg
            {
                OFFSET 0.0 0.0 -418.9392306074067
                CHANNELS 3 Zrotation Xrotation Yrotation
                JOINT LeftFoot
                {
                    OFFSET 0.0 0.0 -384.584902537146
                    CHANNELS 3 Zrotation Xrotation Yrotation
                    End Site
                    {
                        OFFSET 0.0 -0.1 0.0
                    }
                }
            }
        }
    }
    JOINT LowerBack
    {
        OFFSET 0.0 0.0 0.1
        CHANNELS 3 Zrotation Xrotation Yrotation
        JOINT Spine
        {
            OFFSET 0.0 0.0 218.39257947058877
            CHANNELS 3 Zrotation Xrotation Yrotation
            JOINT Spine1
            {
                OFFSET 0.0 0.0 250.38037030844944
                CHANNELS 3 Zrotation Xrotation Yrotation
                JOINT LeftShoulder
                {
                    OFFSET 0.1 0.0 0.0
                    CHANNELS 3 Zrotation Xrotation Yrotation
                    JOINT LeftArm
                    {
                        OFFSET 140.0949134090973 0.0 0.0
                        CHANNELS 3 Zrotation Xrotation Yrotation
                        JOINT LeftForeArm
                        {
                            OFFSET 267.35865420880486 0.0 0.0
                            CHANNELS 3 Zrotation Xrotation Yrotation
                            JOINT LeftHand
                            {
                                OFFSET 236.24484843133814 0.0 0.0
                                CHANNELS 3 Zrotation Xrotation Yrotation
                                End Site
                                {
                                    OFFSET 0.1 0.0 0.0
                                }
                            }
                        }
                    }
                }
                JOINT Neck
                {
                    OFFSET 0.0 0.0 0.1
                    CHANNELS 3 Zrotation Xrotation Yrotation
                    JOINT Neck1
                    {
                        OFFSET 0.0 0.0 104.3835849281437
                        CHANNELS 3 Zrotation Xrotation Yrotation
                        End Site
                        {
                            OFFSET 0.0 0.0 115.12458230582324
                        }
                    }
                }
                JOINT RightShoulder
                {
                    OFFSET -0.1 0.0 0.0
                    CHANNELS 3 Zrotation Xrotation Yrotation
                    JOINT RightArm
                    {
                        OFFSET -140.0949134090973 0.0 0.0
                        CHANNELS 3 Zrotation Xrotation Yrotation
                        JOINT RightForeArm
                        {
                            OFFSET -267.35865420880486 0.0 0.0
                            CHANNELS 3 Zrotation Xrotation Yrotation
                            JOINT RightHand
                            {
                                OFFSET -236.24484843133814 0.0 0.0
                                CHANNELS 3 Zrotation Xrotation Yrotation
                                End Site
                                {
                                    OFFSET -0.1 0.0 0.0
                                }
                            }
                        }
                    }
                }
            }
        }
    }
    JOINT RightHipJoint
    {
        OFFSET -0.1 0.0 0.0
        CHANNELS 3 Zrotation Xrotation Yrotation
        JOINT RightUpLeg
        {
            OFFSET -126.91874366976555 0.0 0.0
            CHANNELS 3 Zrotation Xrotation Yrotation
            JOINT RightLeg
            {
                OFFSET 0.0 0.0 -418.9392306074067
                CHANNELS 3 Zrotation Xrotation Yrotation
                JOINT RightFoot
                {
                    OFFSET 0.0 0.0 -384.584902537146
                    CHANNELS 3 Zrotation Xrotation Yrotation
                    End Site
                    {
                        OFFSET 0.0 -0.1 0.0
                    }
                }
            }
        }
    }
}
MOTION
Frames: 9
Frame Time: 0.03333333333333333
0.0 0.0 801.8563105645455 25.502593851954526 1.6344297582887066 3.270383320603359 0.0 0.0 3.7272125173400585e-16 -0.4311334704310663 -15.609014130132362 0.01333314833062186 1.3081496226405571 38.94845035149687 -2.787836461334811 0.0 0.0 7.951386703658792e-16 0.0 0.0 3.7272125173400585e-16 -0.054363287781240666 -2.010045494271235 -1.631062683849293 -0.9273070468882975 -2.999769175946314e-16 2.2121252316401025e-16 0.0 0.0 -4.969616689786745e-17 -45.626584967167716 -54.72100189586717 3.6949102874049693 -117.08661220665329 7.915925514844424e-15 7.50115827427274e-16 0.0 0.0 0.0 0.0 0.0 -4.969616689786745e-17 -2.479383740157883 -7.926823933701932 -3.7027654996353307 0.0 0.0 -4.969616689786745e-17 30.005982737767845 -40.93041317730283 -15.352669837587383 121.01956523535414 -2.7684812507512513e-15 -1.5657073947638756e-15 0.0 0.0 0.0 0.0 0.0 3.7272125173400585e-16 -0.2819702643748841 -10.27065998544875 -3.664686736461765 -1.5549496810014098 36.666027015598445 3.418486795361002 0.0 -3.975693351829396e-16 0.0
0.0 0.0 801.8563105645455 25.287642990509994 1.7219838526765912 3.062986285620255 0.0 0.0 2.4848083448933725e-17 -0.368639450868206 -15.802301456561654 0.07103406163455124 1.177304735792634 39.510385101267765 -2.579230343663192 0.0 0.0 7.951386703658792e-16 0.0 0.0 2.4848083448933725e-17 -0.05004423859405735 -2.1902455817716437 -1.6562626734280619 -0.9305313148368272 -9.938905678974152e-17 -8.070983882509397e-19 0.0 0.0 -4.969616689786745e-17 -46.052232357614024 -54.21998950496375 2.6978299425099896 -116.34640895949339 -6.2433299906992365e-15 2.0033783903192967e-15 0.0 0.0 0.0 0.0 0.0 -4.969616689786745e-17 -2.322728214907622 -7.8298002218737235 -3.668114890294562 0.0 0.0 -4.969616689786745e-17 30.181312639231535 -40.99574648453 -15.343978604979506 120.3892910242605 7.769231493821671e-16 1.1441304798102687e-14 0.0 0.0 0.0 0.0 0.0 2.4848083448933725e-17 -0.23982783206586067 -10.328803103588083 -3.5685903316431657 -1.6563477948228873 36.5192266087046 3.4106545052704194 0.0 0.0 0.0
0.0 0.0 801.8563105645455 25.146091886699708 1.7743243259107786 2.8771182368956665 0.0 0.0 9.93923337957349e-17 -0.32325375964938696 -16.010173876547587 0.07473921657807689 1.0419622272845621 39.82222251274307 -2.288852837235193 0.0 0.0 7.951386703658792e-16 0.0 0.0 9.93923337957349e-17 -0.04464619236921135 -2.2575896951189005 -1.6865188423254907 -0.9353179208557231 -2.54556932246112e-17 7.433895474989021e-17 0.0 0.0 0.0 -46.3323305997459 -53.94173552722229 1.8188323907534603 -115.62438706757514 -5.9299426457126236e-15 -9.421034933613056e-15 0.0 0.0 0.0 0.0 0.0 0.0 -2.221594866577692 -7.739817303659517 -3.637975613681499 0.0 0.0 0.0 30.4200862071595 -41.10982000897064 -15.224857536512584 119.83350713099176 -8.728552357501135e-16 1.4197066083279795e-14 -9.93923337957349e-17 0.0 0.0 0.0 0.0 9.93923337957349e-17 -0.21176675488096483 -10.524493588883967 -3.4264265040554904 -1.677750752288112 36.43363282801082 3.2898052207172612 0.0 0.0 -7.951386703658792e-16
0.0 0.0 801.8563105645455 25.07969936874714 1.7275641120793197 2.6526848589801415 0.0 0.0 9.93923337957349e-17 -0.2654585908734753 -16.098762685559677 0.13911158217065914 0.933190211006369 40.32287941313129 -1.911380141415219 0.0 0.0 7.951386703658794e-16 0.0 0.0 9.93923337957349e-17 -0.03699141805976723 -2.2878210139988666 -1.645178129676258 -0.9048105629371594 -1.2678711150476807e-16 3.220340278088657e-16 0.0 0.0 4.969616689786745e-17 -46.54131469442527 -53.9711439487698 1.2451516339906332 -115.21026108530425 -2.8151885384487348e-15 7.436347490812187e-15 0.0 0.0 0.0 0.0 0.0 4.969616689786745e-17 -2.1448367760389306 -7.512828713587618 -3.510559847808165 0.0 0.0 4.969616689786745e-17 30.651376591172628 -41.24135719661348 -15.02026017166365 119.26902519396012 7.096297067307023e-15 4.713897977546551e-16 1.4908850069360235e-16 1.5902773407317584e-15 -2.069018577211012e-33 0.0 0.0 9.93923337957349e-17 -0.17592500246806825 -10.671891013508882 -3.2426721795445745 -1.698586557238017 36.461267636726056 3.1021963277778566 0.0 0.0 -7.951386703658792e-16
0.0 0.0 801.8563105645455 25.05482507670471 1.7096816383307307 2.4089954911930644 0.0 0.0 1.4908850069360235e-16 -0.1962674006995384 -16.390419962199395 0.36713295615990776 0.9404199314632022 41.4188427840694 -1.7198177239844492 0.0 0.0 0.0 0.0 0.0 1.4908850069360235e-16 -0.02691034890420357 -2.2877158995232136 -1.6020767765620918 -0.8873893821336033 7.473443518044816e-17 -2.4270078473526414e-17 0.0 0.0 -4.969616689786745e-17 -46.6446281979738 -54.47096894643573 0.751415534963971 -115.10388008416886 6.469806782283084e-15 -1.3535915189580552e-14 0.0 0.0 0.0 0.0 0.0 -4.969616689786745e-17 -2.137854308354822 -7.164504883899446 -3.4916067941294 0.0 0.0 -4.969616689786745e-17 30.7238838350049 -41.305315011641184 -14.891901931012253 118.8602841755775 2.1142924204356128e-15 -9.833058953280177e-15 2.2363275104040355e-16 0.0 0.0 0.0 0.0 1.4908850069360235e-16 -0.1304278103188932 -10.833030268727866 -3.0026924551926863 -1.742453180711103 36.966158086048516 2.8353615543277533 0.0 0.0 0.0
0.0 0.0 801.8563105645455 25.14457663854754 1.536852780003509 2.2135229644986207 0.0 0.0 -1.4908850069360235e-16 -0.12206936543558501 -16.24990535261795 0.6025500073332463 0.9360768622482157 41.936036793696275 -1.7839205011244164 0.0 0.0 0.0 0.0 0.0 -1.4908850069360235e-16 -0.016293637241874437 -2.1956238970978568 -1.5672735129242228 -0.9501760158631039 9.877081430907795e-17 7.536582460141332e-17 0.0 0.0 0.0 -46.577624108623105 -54.68402064983624 0.6690767964968807 -115.09771011342565 -1.5250141313483622e-14 1.1581691710768632e-14 0.0 0.0 0.0 0.0 0.0 0.0 -2.0425017908298444 -6.845874083706889 -3.482770181806592 0.0 0.0 0.0 31.012409993452597 -41.12155533421422 -14.600368505345424 118.60994896475175 1.0340612944572913e-14 -4.957699970113611e-15 -1.987846675914698e-16 0.0 0.0 0.0 0.0 -1.4908850069360235e-16 -0.0808760461910707 -10.584998854199252 -2.777649115747054 -1.7550660908590328 36.82800842449994 2.6030105004693582 0.0 0.0 7.951386703658791e-16
0.0 0.0 801.8563105645455 25.13086341590645 1.4618048728258886 2.0571339738157035 0.0 0.0 4.969616689786745e-17 -0.05198396399573326 -16.10657246906491 0.731984002566452 0.8355859304084544 42.157849492742876 -1.6156451673301864 0.0 0.0 7.951386703658792e-16 0.0 0.0 4.969616689786745e-17 -0.006871794474581136 -2.1093677695340842 -1.510915848311528 -1.0244782173933875 -1.8546459680909086e-16 -1.0105445176411188e-16 0.0 0.0 0.0 -46.32445968938132 -55.068519222655645 0.7809581314442359 -115.23489179034378 -1.2447208374546522e-14 4.1276847106907645e-15 0.0 0.0 0.0 0.0 0.0 0.0 -2.0540915638723654 -6.647905649882264 -3.5587224534101414 0.0 0.0 0.0 31.349522016168084 -41.16972988756208 -14.370853454319576 118.55483097588463 3.843446251675761e-15 5.9839419548803255e-15 0.0 0.0 0.0 0.0 0.0 4.969616689786745e-17 -0.03539253263092305 -10.284365627935019 -2.652138902116996 -1.8157409582218222 36.41877632100233 2.42713408132397 0.0 0.0 0.0
0.0 0.0 801.8563105645455 25.1489333830774 1.4080646184173837 1.8876650893569644 0.0 0.0 -5.963540027744094e-16 0.014177120239816075 -16.130625318554106 0.7902749088010237 0.6765243779711048 42.321382969848685 -1.3514360462299093 0.0 0.0 7.951386703658792e-16 0.0 0.0 -5.963540027744094e-16 0.001518632638610218 -2.0583322443177967 -1.4369923193273302 -1.0188959073072734 9.938840486465419e-17 8.837396802058866e-19 0.0 0.0 0.0 -46.35039713004066 -55.640844491338996 0.709675468211754 -115.25950875848456 -5.1084948455408014e-15 -8.058947397092156e-15 0.0 -6.3611093629270335e-15 0.0 0.0 0.0 0.0 -1.983740004280989 -6.569933696802949 -3.4083568245922806 0.0 0.0 0.0 31.460572568177476 -41.25862751956871 -14.182906035037606 118.72709500485226 -4.968268504106859e-15 -1.0335539324787712e-14 0.0 0.0 0.0 0.0 0.0 -5.963540027744094e-16 0.005913856365571095 -10.070703596444417 -2.5861005952102896 -1.8921036054868545 35.75305428663489 2.426943322081324 0.0 0.0 -7.951386703658792e-16
0.0 0.0 801.8563105645455 25.103010071001652 1.280174368263687 1.8243229058115353 0.0 0.0 1.2424041724466862e-16 0.043065829974122234 -15.991540750174973 0.6747515332700361 0.4754230842471209 42.309480556603326 -1.107314580636831 0.0 -1.987846675914698e-16 0.0 0.0 0.0 1.2424041724466862e-16 0.005026137085947721 -2.008914189710774 -1.4630926214917375 -1.053538802724348 -1.9923315949467053e-16 4.7866493829849516e-17 0.0 0.0 0.0 -46.31112072372591 -55.94494453498589 0.6823843263143659 -115.2126340064183 -1.415033673093733e-14 1.444483311317802e-15 0.0 0.0 0.0 0.0 0.0 0.0 -1.912690122938354 -6.349658972158108 -3.3129118771587533 0.0 0.0 0.0 31.576062610417953 -41.31494252100892 -14.09772551612492 118.80590119275148 -3.356482146944619e-15 -1.3069840590813377e-14 -3.975693351829396e-16 0.0 0.0 0.0 0.0 1.2424041724466862e-16 0.02278447933303137 -9.665736087752263 -2.6113327810244216 -1.9384343080186657 35.12052344804595 2.3837935747788093 0.0 0.0 7.951386703658792e-16
